<?xml version="1.0" standalone="no"?>
<!DOCTYPE svg PUBLIC "-//W3C//DTD SVG 20010904//EN"
 "http://www.w3.org/TR/2001/REC-SVG-20010904/DTD/svg10.dtd">
<svg version="1.0" xmlns="http://www.w3.org/2000/svg"
 width="1536.000000pt" height="1024.000000pt" viewBox="0 0 1536.000000 1024.000000"
 preserveAspectRatio="xMidYMid meet">

<g transform="translate(0.000000,1024.000000) scale(0.100000,-0.100000)"
fill="#000000" stroke="none">
<path d="M14135 9374 c-264 -124 -483 -229 -487 -232 -4 -4 60 -82 142 -174
141 -158 173 -198 133 -167 -10 7 -7 1 6 -13 13 -15 27 -25 31 -23 11 7 53
-42 45 -55 -3 -6 -1 -9 6 -8 7 2 13 -3 14 -9 0 -7 3 -12 7 -10 8 3 58 -44 58
-55 0 -5 -6 -6 -12 -2 -9 5 -9 3 1 -9 7 -9 17 -15 21 -12 11 7 73 -62 66 -73
-3 -5 2 -16 12 -23 16 -13 16 -12 2 6 -8 11 5 2 28 -20 40 -37 57 -65 30 -49
-9 5 -9 3 1 -9 7 -9 17 -15 21 -12 4 3 87 -83 185 -190 97 -107 178 -195 181
-195 2 0 4 351 4 780 0 429 -3 780 -7 779 -5 0 -224 -101 -488 -225z"/>
<path d="M12502 9211 l-242 -126 -3 -783 c-1 -430 -1 -782 1 -782 1 0 132 63
290 141 158 77 371 181 475 231 103 50 187 94 187 97 0 3 -61 75 -135 160 -73
85 -131 160 -127 165 3 6 7 43 9 81 1 39 5 138 9 220 8 190 8 247 3 367 -4 84
-2 95 11 85 8 -7 -20 29 -62 78 -42 50 -96 113 -120 142 -23 28 -45 52 -48 51
-3 0 -114 -57 -248 -127z"/>
<path d="M13505 9280 c3 -6 -5 -14 -18 -19 -50 -19 -211 -206 -254 -297 -10
-20 -32 -45 -50 -54 l-31 -17 90 -101 c50 -56 95 -99 100 -95 6 3 8 1 5 -5 -4
-5 31 -53 78 -106 75 -84 109 -116 90 -87 -3 5 -1 12 4 16 6 3 8 -5 6 -18 -4
-17 5 -33 30 -57 19 -19 35 -30 35 -26 0 5 6 4 13 -1 18 -13 71 -17 63 -5 -4
7 4 8 26 1 18 -5 57 -9 85 -9 29 0 53 -4 53 -8 0 -15 41 -53 51 -47 5 4 9 1 9
-4 0 -6 -4 -11 -9 -11 -8 0 -8 -23 0 -40 1 -3 3 -11 3 -19 1 -8 9 -16 19 -18
9 -1 25 -5 34 -6 10 -2 26 4 37 14 10 10 23 16 28 13 5 -3 7 -2 6 3 -1 4 6 22
15 40 9 18 17 39 17 48 0 15 -29 90 -50 127 -13 23 -13 38 0 18 7 -11 9 -2 9
30 -1 37 -2 41 -9 20 l-8 -25 -1 25 c-2 44 -12 68 -32 73 -12 3 -19 0 -19 -8
0 -7 -8 -12 -17 -10 -10 2 -22 4 -27 4 -5 1 1 12 13 25 12 13 21 33 19 43 -2
11 4 28 12 38 14 17 13 17 -6 7 -35 -19 -70 -2 -65 31 0 4 -3 7 -9 7 -5 0 -10
7 -10 15 0 8 -4 15 -9 15 -6 0 -9 9 -8 20 1 11 7 20 14 20 7 0 13 7 13 16 0 9
5 12 13 8 6 -4 -1 7 -17 24 -16 17 -32 30 -35 28 -3 -2 -17 11 -30 28 l-25 31
30 -25 29 -25 -29 32 c-16 18 -33 30 -38 27 -5 -3 -7 0 -6 6 4 14 -93 128
-109 129 -7 1 -10 7 -7 15 3 8 -21 44 -56 85 -54 63 -83 90 -65 61z m26 -27
c13 -16 12 -17 -3 -4 -10 7 -18 15 -18 17 0 8 8 3 21 -13z m54 -153 c-3 -5
-12 -10 -18 -10 -7 0 -6 4 3 10 19 12 23 12 15 0z m256 -217 c13 -16 12 -17
-3 -4 -10 7 -18 15 -18 17 0 8 8 3 21 -13z m14 -283 c3 -5 -3 -10 -14 -10 -11
0 -23 5 -26 10 -3 6 3 10 14 10 11 0 23 -4 26 -10z m-348 -65 c9 -25 -2 -27
-22 -5 -17 18 -17 20 -1 20 9 0 19 -7 23 -15z"/>
<path d="M14020 8599 c0 -5 5 -7 10 -4 6 3 10 8 10 11 0 2 -4 4 -10 4 -5 0
-10 -5 -10 -11z"/>
<path d="M13598 8395 c7 -11 38 -47 69 -80 32 -34 51 -52 43 -40 -8 11 -32 39
-53 62 -26 27 -37 46 -32 55 5 7 5 10 0 6 -4 -4 -15 -2 -23 5 -13 10 -14 9 -4
-8z"/>
<path d="M14099 8275 c-17 -37 -27 -45 -59 -45 -15 0 -37 -13 -55 -32 -17 -18
-45 -44 -63 -57 -18 -13 -32 -30 -32 -38 0 -8 5 -11 10 -8 6 3 10 0 10 -7 0
-9 3 -10 8 -2 7 11 52 1 52 -11 0 -4 -4 -4 -9 0 -5 3 -12 1 -16 -5 -8 -12 15
-13 35 0 9 5 19 5 27 -2 31 -25 99 33 92 78 -2 10 1 25 5 33 7 11 5 13 -7 8
-18 -7 -24 8 -7 18 6 4 8 11 4 16 -3 6 2 19 11 29 9 10 15 27 13 37 -4 15 -7
12 -19 -12z"/>
<path d="M13473 8113 c-134 -69 -243 -130 -243 -135 0 -5 5 -6 12 -2 7 4 8 3
4 -5 -5 -7 11 -32 41 -64 26 -29 115 -129 196 -224 l148 -170 167 89 c92 50
207 110 256 135 67 33 86 47 75 54 -19 10 -242 256 -248 273 -2 6 7 2 20 -9
l24 -20 -24 27 c-13 15 -27 25 -32 23 -4 -3 -38 30 -75 72 -37 43 -70 79 -73
80 -3 1 -115 -55 -248 -124z"/>
<path d="M13830 8135 c13 -14 26 -25 28 -25 3 0 -5 11 -18 25 -13 14 -26 25
-28 25 -3 0 5 -11 18 -25z"/>
<path d="M14458 7959 c-32 -16 -58 -32 -58 -34 0 -3 27 8 60 25 33 17 60 32
60 35 0 7 2 8 -62 -26z"/>
<path d="M14365 7910 c-3 -6 1 -7 9 -4 18 7 21 14 7 14 -6 0 -13 -4 -16 -10z"/>
<path d="M14198 7824 c-27 -13 -48 -27 -48 -29 0 -3 23 6 50 20 28 14 50 28
50 30 0 7 1 7 -52 -21z"/>
<path d="M12699 7201 c-47 -15 -66 -30 -83 -65 -36 -76 -8 -164 61 -193 108
-45 214 51 183 166 -10 38 -58 91 -83 91 -7 0 -21 2 -32 5 -11 2 -32 0 -46 -4z
m70 -32 c36 -13 61 -53 61 -99 0 -88 -89 -140 -153 -90 -59 47 -56 143 7 181
36 22 42 23 85 8z"/>
<path d="M13948 7203 c-15 -2 -37 -16 -48 -30 -41 -52 -18 -89 71 -118 70 -22
84 -42 53 -76 -21 -23 -71 -25 -102 -3 -22 15 -42 12 -42 -6 0 -16 57 -40 92
-40 71 0 120 53 97 104 -11 24 -32 35 -137 71 -8 3 -12 16 -10 32 4 37 53 52
97 30 25 -12 32 -13 41 -2 9 10 7 16 -7 23 -25 13 -73 20 -105 15z"/>
<path d="M12288 7066 c3 -111 6 -134 17 -130 11 5 15 31 17 106 l3 100 70
-103 c98 -143 105 -141 105 27 0 111 -3 134 -15 134 -11 0 -15 -20 -17 -102
l-3 -102 -70 99 c-43 61 -78 101 -90 103 -19 3 -20 -2 -17 -132z"/>
<path d="M12961 7073 c1 -71 3 -131 5 -135 3 -4 11 -5 19 -1 10 3 15 20 15 54
0 49 0 49 33 49 27 0 37 -8 66 -50 21 -31 41 -50 53 -50 22 0 19 6 -26 64 -21
27 -26 41 -18 44 27 9 52 47 52 78 0 53 -37 74 -126 74 l-74 0 1 -127z m155
72 c15 -23 15 -27 0 -50 -14 -21 -24 -25 -66 -25 l-50 0 0 50 0 50 50 0 c42 0
52 -4 66 -25z"/>
<path d="M13270 7068 l0 -133 84 5 c72 4 88 9 110 29 60 57 53 164 -13 208
-28 19 -48 23 -107 23 l-74 0 0 -132z m171 73 c40 -40 41 -98 2 -141 -24 -26
-36 -31 -83 -33 l-55 -2 -3 103 -3 102 56 0 c49 0 60 -4 86 -29z"/>
<path d="M13610 7068 l0 -133 90 0 c73 0 90 3 90 15 0 12 -15 15 -72 15 l-73
0 -3 48 -3 47 70 0 c56 0 71 3 71 15 0 12 -14 15 -70 15 l-70 0 0 40 0 40 75
0 c60 0 75 3 75 15 0 12 -17 15 -90 15 l-90 0 0 -132z"/>
<path d="M14140 7186 c0 -11 14 -16 48 -18 l47 -3 2 -115 c0 -63 4 -114 7
-112 3 1 11 2 16 2 6 0 10 45 10 115 l0 115 45 0 c33 0 45 4 45 15 0 12 -19
15 -110 15 -89 0 -110 -3 -110 -14z"/>
<path d="M14450 7064 l0 -137 53 7 c28 3 69 6 90 6 68 0 38 19 -35 22 l-73 3
-3 48 -3 47 65 0 c52 0 66 3 66 15 0 12 -14 15 -65 15 l-65 0 0 40 0 40 75 0
c60 0 75 3 75 15 0 12 -17 15 -90 15 l-90 0 0 -136z"/>
<path d="M9620 6940 c-214 -38 -423 -116 -602 -226 -133 -80 -200 -135 -318
-253 -309 -312 -475 -737 -469 -1200 l1 -113 -148 -152 c-82 -83 -123 -126
-91 -96 55 52 65 54 58 8 0 -4 8 -9 18 -13 17 -5 54 -64 56 -90 0 -5 7 -30 14
-55 8 -25 15 -65 17 -90 1 -25 4 -56 7 -70 4 -21 -10 -40 -77 -110 l-81 -85
75 70 c41 38 116 109 166 158 l90 88 44 -97 c24 -53 74 -142 111 -198 264
-400 656 -647 1154 -727 105 -17 456 -17 560 -1 355 57 615 187 845 422 160
162 259 324 330 539 67 200 90 353 90 588 l0 153 -625 0 -625 0 0 -235 0 -235
361 0 361 0 -8 -32 c-81 -371 -398 -652 -804 -713 -479 -73 -939 118 -1192
495 -28 41 -55 74 -60 72 -5 -1 -7 2 -4 7 3 5 -9 42 -28 82 -69 154 -96 286
-96 474 0 334 115 612 347 836 265 255 605 366 983 318 221 -27 460 -152 651
-340 l91 -89 166 120 c250 180 230 162 209 194 -33 50 -159 176 -170 169 -6
-3 -7 -1 -3 5 3 6 -24 37 -63 71 -130 111 -303 216 -338 205 -13 -4 -15 -3 -5
4 33 23 -284 127 -461 151 -126 18 -415 12 -537 -9z"/>
<path d="M13693 6797 c-3 -6 -1 -7 6 -3 6 4 18 2 26 -4 14 -11 35 -6 35 8 0
11 -60 10 -67 -1z"/>
<path d="M12563 6755 c-41 -17 -58 -52 -49 -99 20 -104 176 -87 176 19 0 70
-62 109 -127 80z m77 -15 c28 -15 40 -61 25 -97 -20 -48 -65 -57 -109 -22 -68
54 6 160 84 119z"/>
<path d="M12864 6756 c-59 -26 -67 -127 -13 -156 29 -16 95 -12 110 7 12 15
12 16 -6 8 -48 -19 -74 -17 -99 8 -32 32 -33 65 -5 102 22 27 55 31 102 10 10
-4 17 -3 17 3 0 9 -52 33 -69 32 -3 -1 -20 -7 -37 -14z"/>
<path d="M13425 6763 c-64 -16 -89 -107 -42 -151 13 -12 28 -22 35 -22 6 0 16
-9 22 -19 8 -16 6 -20 -8 -24 -13 -4 -12 -5 5 -6 24 -1 39 14 23 24 -16 10
-11 25 9 25 10 0 25 8 32 17 12 15 12 16 -6 8 -43 -17 -71 -16 -95 3 -33 27
-34 87 -1 113 25 20 76 25 86 9 8 -12 25 -13 25 -1 0 7 -60 35 -64 30 -1 -1
-10 -3 -21 -6z"/>
<path d="M14213 6760 c-26 -11 -39 -46 -23 -65 7 -8 30 -20 52 -25 43 -12 57
-32 37 -56 -13 -16 -44 -15 -81 1 -11 4 -18 3 -18 -4 0 -16 61 -29 92 -19 59
21 41 75 -32 97 -22 6 -40 17 -40 24 0 21 22 37 50 37 14 0 31 -5 38 -12 9 -9
12 -9 12 0 0 7 -12 17 -26 22 -29 12 -32 12 -61 0z"/>
<path d="M12290 6675 l0 -85 53 2 c50 1 50 2 10 5 l-43 4 0 80 c0 46 -4 79
-10 79 -6 0 -10 -35 -10 -85z"/>
<path d="M13130 6708 c-46 -107 -50 -118 -42 -118 5 0 14 11 20 25 10 21 18
25 55 25 37 0 46 -4 55 -25 6 -14 16 -25 21 -25 5 0 -7 38 -27 85 -20 46 -42
85 -48 85 -6 0 -22 -24 -34 -52z m69 -50 c1 -5 -15 -8 -34 -8 -40 0 -41 3 -19
56 l17 39 18 -40 c9 -22 18 -43 18 -47z"/>
<path d="M13655 6735 c-45 -44 -29 -116 31 -141 29 -12 39 -12 68 0 93 39 67
166 -34 166 -30 0 -47 -6 -65 -25z m115 -5 c27 -27 27 -83 -2 -110 -25 -23
-49 -25 -81 -9 -30 16 -37 28 -37 67 0 41 30 72 70 72 17 0 39 -9 50 -20z"/>
<path d="M13940 6675 l0 -85 63 2 62 2 -52 3 c-53 4 -53 4 -53 39 0 34 0 34
45 34 25 0 45 5 45 10 0 6 -20 10 -45 10 -43 0 -45 1 -45 29 0 29 2 30 53 34
l52 3 -62 2 -63 2 0 -85z"/>
<path d="M7616 6527 c3 -10 9 -15 12 -12 3 3 0 11 -7 18 -10 9 -11 8 -5 -6z"/>
<path d="M7635 6483 c26 -66 45 -176 45 -257 0 -140 -36 -260 -110 -373 -26
-40 -27 -43 -5 -18 38 44 92 161 111 240 22 96 15 275 -16 363 -12 34 -24 62
-27 62 -3 0 -2 -8 2 -17z"/>
<path d="M14592 6428 c-28 -28 -1 -75 37 -63 25 8 34 31 21 56 -12 21 -40 25
-58 7z"/>
<path d="M12308 6403 c23 -2 61 -2 85 0 23 2 4 4 -43 4 -47 0 -66 -2 -42 -4z"/>
<path d="M12928 6403 c84 -2 219 -2 300 0 81 1 12 3 -153 3 -165 0 -231 -2
-147 -3z"/>
<path d="M13463 6403 c20 -2 54 -2 75 0 20 2 3 4 -38 4 -41 0 -58 -2 -37 -4z"/>
<path d="M13783 6403 c43 -2 110 -2 150 0 40 1 5 3 -78 3 -82 0 -115 -2 -72
-3z"/>
<path d="M14298 6403 c34 -2 90 -2 125 0 34 2 6 3 -63 3 -69 0 -97 -1 -62 -3z"/>
<path d="M7480 5745 c-24 -25 -42 -45 -39 -45 3 0 25 20 49 45 24 25 42 45 39
45 -3 0 -25 -20 -49 -45z"/>
<path d="M7830 4753 l-75 -78 80 75 c44 41 81 76 84 78 2 1 0 2 -5 2 -5 0 -43
-35 -84 -77z"/>
<path d="M7419 4383 c-13 -16 -12 -17 4 -4 16 13 21 21 13 21 -2 0 -10 -8 -17
-17z"/>
<path d="M8084 4296 c42 -46 75 -90 74 -98 -2 -7 3 -12 10 -10 8 1 11 -2 7 -8
-3 -6 -11 -8 -16 -5 -5 4 -9 0 -9 -8 0 -8 -13 -33 -29 -56 -26 -39 -32 -72
-20 -116 4 -17 -13 -69 -32 -97 -11 -14 -19 -29 -19 -33 0 -3 -7 -13 -15 -21
-8 -9 -15 -12 -15 -8 0 5 -6 2 -12 -4 -10 -10 -33 8 -111 90 -94 98 -93 97 20
-29 l118 -133 273 0 274 0 -93 103 c-51 56 -126 139 -167 184 -41 45 -79 80
-84 77 -5 -3 -7 0 -6 7 2 7 -3 14 -9 15 -7 1 -16 3 -20 4 -5 1 -12 2 -16 1 -5
-1 -6 3 -2 9 5 8 12 7 23 -2 9 -7 13 -8 11 -2 -6 17 -193 222 -202 223 -5 1
25 -37 67 -83z m-62 -483 c-1 -4 7 -17 16 -28 11 -13 8 -12 -10 4 -15 13 -25
28 -22 33 6 10 16 5 16 -9z"/>
<path d="M7369 4343 c-13 -16 -12 -17 4 -4 16 13 21 21 13 21 -2 0 -10 -8 -17
-17z"/>
<path d="M7730 4096 c0 -2 8 -10 18 -17 15 -13 16 -12 3 4 -13 16 -21 21 -21
13z"/>
<path d="M11100 3340 c-23 -43 17 -83 60 -60 22 12 27 49 8 68 -19 19 -56 14
-68 -8z"/>
<path d="M4403 3313 c43 -2 110 -2 150 0 40 1 5 3 -78 3 -82 0 -115 -2 -72 -3z"/>
<path d="M4668 3313 c23 -2 61 -2 85 0 23 2 4 4 -43 4 -47 0 -66 -2 -42 -4z"/>
<path d="M6553 3313 c812 -2 2142 -2 2955 0 812 1 147 2 -1478 2 -1625 0
-2290 -1 -1477 -2z"/>
<path d="M9854 3073 c-8 -13 -14 -14 -31 -4 -35 18 -81 14 -93 -10 -15 -27 -6
-35 24 -20 17 10 29 10 44 2 32 -17 70 -13 82 8 13 25 13 28 -3 34 -7 3 -18
-2 -23 -10z"/>
<path d="M3825 2971 c-135 -61 -150 -244 -28 -327 60 -40 155 -39 236 2 26 14
27 18 27 89 l0 75 -76 0 c-72 0 -75 -1 -72 -22 2 -19 10 -24 46 -26 42 -3 42
-4 42 -41 0 -37 -2 -39 -44 -51 -171 -48 -257 177 -99 259 32 16 74 13 117 -8
31 -16 42 -18 57 -8 27 17 20 29 -31 55 -54 27 -120 28 -175 3z"/>
<path d="M6799 2975 c-41 -23 -54 -70 -31 -116 l18 -37 -33 -30 c-83 -74 -5
-198 111 -176 20 3 47 15 60 25 23 18 24 18 41 -1 11 -13 31 -20 52 -20 l35 0
-35 41 -34 41 29 54 30 54 -29 0 c-24 0 -33 -7 -47 -36 l-17 -37 -39 38 -39
39 29 17 c54 33 64 81 27 124 -27 32 -90 42 -128 20z m88 -51 c13 -20 12 -25
-11 -50 -24 -28 -24 -29 -45 -10 -25 23 -27 49 -5 71 21 20 43 16 61 -11z
m-17 -180 l45 -45 -24 -20 c-13 -10 -35 -19 -49 -19 -30 0 -72 36 -72 60 0 18
36 70 49 70 4 0 27 -21 51 -46z"/>
<path d="M7684 2971 c-96 -44 -137 -172 -85 -268 17 -33 71 -70 121 -83 52
-14 107 -7 161 20 l39 20 0 75 0 75 -70 0 c-68 0 -70 -1 -70 -25 0 -22 4 -25
40 -25 40 0 40 0 40 -40 0 -37 -2 -40 -39 -51 -108 -32 -210 61 -180 165 13
46 38 77 74 92 46 19 74 18 119 -5 31 -16 42 -18 57 -8 27 17 20 29 -31 55
-54 27 -120 28 -176 3z"/>
<path d="M8743 2970 c-38 -23 -53 -48 -53 -88 0 -46 33 -78 105 -102 67 -22
91 -46 80 -79 -6 -20 -45 -41 -75 -41 -10 0 -33 12 -50 26 l-31 27 -22 -22
-22 -22 23 -19 c58 -48 152 -47 206 0 25 23 31 36 31 68 0 53 -32 87 -99 107
-83 25 -110 67 -64 99 28 20 51 20 90 0 27 -14 32 -14 45 -1 19 19 9 35 -33
53 -46 19 -93 17 -131 -6z"/>
<path d="M10314 2980 c-43 -13 -100 -79 -114 -131 -28 -103 34 -206 139 -230
106 -24 205 33 232 134 21 80 -10 166 -77 207 -39 25 -132 35 -180 20z m151
-66 c27 -17 55 -81 55 -123 0 -68 -87 -139 -155 -127 -133 25 -150 213 -25
265 31 13 94 6 125 -15z"/>
<path d="M4330 2800 l0 -180 125 0 125 0 0 25 c0 25 0 25 -95 25 l-95 0 0 55
0 55 80 0 c79 0 80 0 80 25 0 25 -1 25 -80 25 l-80 0 0 50 0 50 90 0 c89 0 90
0 90 25 l0 25 -120 0 -120 0 0 -180z"/>
<path d="M4840 2800 l0 -180 25 0 24 0 3 138 3 137 95 -137 c89 -129 97 -138
128 -138 l32 0 0 180 0 180 -30 0 -30 0 0 -137 0 -137 -92 137 c-87 129 -95
137 -125 137 l-33 0 0 -180z"/>
<path d="M5390 2955 c0 -24 3 -25 60 -25 l60 0 0 -155 0 -155 30 0 31 0 -3
155 -3 154 55 3 c48 3 55 6 58 26 3 22 3 22 -142 22 l-146 0 0 -25z"/>
<path d="M5920 2800 l0 -180 125 0 125 0 0 25 c0 25 0 25 -95 25 l-95 0 0 55
0 55 85 0 c84 0 85 0 85 25 0 25 -1 25 -85 25 l-85 0 0 50 0 50 90 0 c89 0 90
0 90 25 l0 25 -120 0 -120 0 0 -180z"/>
<path d="M8190 2800 l0 -180 125 0 125 0 0 25 c0 25 0 25 -95 25 l-95 0 0 55
0 55 80 0 c79 0 80 0 80 25 0 25 -1 25 -80 25 l-80 0 0 50 0 50 90 0 c89 0 90
0 90 25 l0 25 -120 0 -120 0 0 -180z"/>
<path d="M9160 2955 c0 -24 3 -25 58 -25 l58 0 -1 -155 0 -155 33 0 32 0 0
155 0 155 50 0 c47 0 50 2 50 25 l0 25 -140 0 -140 0 0 -25z"/>
<path d="M9731 2878 c-24 -57 -59 -138 -77 -180 l-33 -78 32 0 c29 0 34 5 51
45 l18 46 82 -3 81 -3 19 -42 c16 -36 24 -43 48 -43 15 0 28 3 28 8 0 4 -33
84 -73 177 -70 163 -74 170 -103 173 -29 3 -31 0 -73 -100z m129 -99 c5 -9 6
-20 3 -23 -7 -7 -123 -8 -123 -1 0 2 9 28 21 57 12 29 25 64 31 78 9 24 11 22
34 -35 14 -33 29 -67 34 -76z"/>
<path d="M3961 2274 c-38 -49 -24 -114 29 -132 32 -11 90 1 90 19 0 12 -17 11
-25 -1 -9 -15 -48 -12 -73 6 -46 32 -16 124 41 124 13 0 28 -5 35 -12 6 -6 15
-8 19 -4 12 12 -19 26 -59 26 -28 0 -42 -6 -57 -26z"/>
<path d="M4172 2293 c-22 -9 -44 -63 -37 -94 20 -89 165 -74 165 18 0 47 -34
83 -78 82 -20 0 -43 -3 -50 -6z m88 -23 c28 -28 27 -84 -2 -104 -31 -22 -58
-20 -85 6 -29 27 -29 65 -1 95 26 28 61 30 88 3z"/>
<path d="M4370 2220 c0 -94 18 -108 22 -18 l3 63 40 -63 c54 -84 65 -81 65 18
0 47 -4 80 -10 80 -6 0 -10 -29 -10 -67 l0 -68 -45 68 c-25 37 -50 67 -55 67
-6 0 -10 -34 -10 -80z"/>
<path d="M4578 2220 l-3 -80 55 2 55 2 -47 3 c-47 4 -48 5 -48 38 0 33 2 34
43 38 l42 4 -42 1 c-40 2 -43 4 -43 31 0 28 2 30 48 34 l47 3 -52 2 -51 2 -4
-80z"/>
<path d="M4768 2288 c-49 -37 -37 -130 19 -144 15 -4 37 -7 47 -6 21 1 58 32
39 32 -7 0 -15 -4 -18 -10 -3 -5 -19 -10 -35 -10 -31 0 -70 39 -70 70 0 26 39
70 61 70 11 0 30 -5 41 -11 16 -9 19 -8 16 3 -6 18 -79 22 -100 6z"/>
<path d="M4945 2291 c29 -6 30 -8 36 -81 l5 -75 2 77 2 77 33 4 c17 2 1 4 -38
4 -44 0 -59 -2 -40 -6z"/>
<path d="M5104 2224 c-38 -83 -38 -84 -25 -84 5 0 13 9 16 20 5 16 15 20 50
20 35 0 45 -4 50 -20 3 -11 11 -20 17 -20 11 0 11 -1 -28 93 -16 37 -33 67
-37 67 -5 0 -24 -34 -43 -76z m61 13 l15 -37 -34 0 -34 0 15 40 c9 22 18 39
19 37 2 -2 10 -20 19 -40z"/>
<path d="M5280 2220 c0 -47 4 -80 10 -80 6 0 10 18 10 41 0 49 14 48 48 -2 31
-46 48 -50 22 -6 l-21 36 20 20 c12 12 21 25 21 30 0 22 -34 41 -71 41 l-39 0
0 -80z m80 55 c19 -23 4 -45 -30 -45 -27 0 -30 3 -30 30 0 25 4 30 24 30 13 0
29 -7 36 -15z"/>
<path d="M5550 2220 c0 -47 4 -80 10 -80 6 0 10 16 10 35 0 32 3 35 28 35 33
0 52 16 52 45 0 31 -19 45 -62 45 l-38 0 0 -80z m75 56 c25 -18 13 -43 -24
-48 -29 -4 -31 -3 -31 29 0 37 21 44 55 19z"/>
<path d="M5720 2220 l0 -80 58 2 c56 2 56 2 10 5 -47 4 -48 5 -48 38 0 33 2
34 43 38 l42 4 -42 1 c-40 2 -43 4 -43 31 0 28 3 30 43 34 40 3 40 4 -10 5
l-53 2 0 -80z"/>
<path d="M5900 2285 c-19 -23 -7 -49 33 -68 44 -22 50 -53 12 -63 -14 -3 -31
-1 -39 5 -9 7 -17 8 -20 3 -7 -12 17 -22 55 -22 22 0 32 7 41 26 11 23 10 29
-11 45 -13 11 -29 19 -36 19 -7 0 -18 7 -25 15 -19 23 6 48 42 41 18 -3 27 -2
23 4 -9 15 -61 12 -75 -5z"/>
<path d="M6060 2285 c-19 -23 -7 -49 33 -69 29 -14 37 -23 35 -40 -4 -25 -42
-34 -65 -14 -14 11 -15 11 -11 -2 6 -19 64 -25 84 -9 30 24 6 72 -41 81 -14 2
-20 11 -20 28 0 22 4 25 33 24 17 -1 32 2 32 7 0 15 -67 10 -80 -6z"/>
<path d="M6231 2274 c-44 -56 -11 -134 56 -134 45 0 62 9 79 42 12 24 13 36 4
64 -13 40 -35 54 -84 54 -25 0 -40 -7 -55 -26z m108 -10 c12 -15 21 -34 21
-44 0 -27 -39 -70 -64 -70 -40 0 -66 27 -66 70 0 67 69 95 109 44z"/>
<path d="M6457 2220 c-19 -44 -31 -80 -25 -80 5 0 12 9 15 20 4 16 14 20 53
20 39 0 49 -4 53 -20 3 -11 10 -20 16 -20 6 0 -1 26 -15 58 -14 31 -30 67 -35
80 -5 12 -12 22 -17 22 -5 0 -25 -36 -45 -80z m66 15 l17 -35 -36 0 c-31 0
-35 3 -29 18 4 9 10 25 12 35 8 26 17 21 36 -18z"/>
<path d="M6640 2280 c-14 -27 -2 -46 41 -68 37 -19 43 -39 17 -56 -13 -8 -23
-8 -38 1 -10 7 -21 9 -24 4 -9 -13 5 -21 39 -21 37 0 55 15 55 48 0 18 -9 27
-40 40 -32 12 -40 20 -38 36 2 17 10 21 40 20 21 -1 35 3 32 7 -3 5 -21 9 -39
9 -24 0 -38 -6 -45 -20z"/>
<path d="M6980 2220 l0 -80 45 0 c35 0 52 6 70 25 56 55 15 135 -70 135 l-45
0 0 -80z m107 43 c7 -9 13 -29 13 -43 0 -38 -20 -60 -63 -67 l-37 -6 0 73 0
73 37 -6 c21 -4 44 -14 50 -24z"/>
<path d="M7190 2220 l0 -80 53 2 52 2 -48 3 c-47 4 -48 5 -45 36 3 29 7 33 43
38 l40 6 -42 2 c-41 1 -43 3 -43 30 0 28 2 30 48 34 l47 3 -52 2 -53 2 0 -80z"/>
<path d="M7360 2279 c-16 -29 -7 -46 35 -63 29 -12 36 -20 33 -38 -3 -20 -8
-23 -41 -21 -23 2 -35 -1 -32 -7 9 -14 69 -12 83 2 7 7 12 23 12 36 0 18 -9
27 -40 40 -32 12 -40 20 -38 36 3 18 9 21 41 19 23 -2 35 1 32 7 -3 6 -22 10
-40 10 -24 0 -37 -6 -45 -21z"/>
<path d="M7520 2220 l0 -80 58 2 c56 2 56 2 10 5 -47 4 -48 5 -48 38 0 32 2
34 38 38 l37 4 -37 1 c-35 2 -38 4 -38 31 0 28 3 30 43 34 40 3 40 4 -10 5
l-53 2 0 -80z"/>
<path d="M7690 2218 c0 -94 8 -102 11 -10 1 34 5 59 9 57 4 -3 25 -32 46 -65
53 -82 64 -79 64 20 0 47 -4 80 -10 80 -6 0 -10 -29 -10 -67 l0 -67 -46 67
c-26 37 -50 67 -55 67 -5 0 -9 -37 -9 -82z"/>
<path d="M7904 2238 c36 -95 38 -98 46 -98 7 0 23 37 67 148 3 6 1 12 -4 12
-5 0 -20 -29 -34 -65 -13 -36 -26 -65 -29 -65 -3 0 -16 29 -28 65 -13 36 -28
65 -33 65 -5 0 2 -28 15 -62z"/>
<path d="M8103 2285 c-47 -33 -36 -116 18 -139 40 -17 75 -10 99 22 43 54 9
132 -59 132 -20 0 -46 -7 -58 -15z m95 -11 c16 -11 22 -25 22 -54 0 -29 -6
-43 -22 -54 -71 -50 -145 38 -86 101 25 27 54 29 86 7z"/>
<path d="M8310 2220 l0 -80 53 2 c50 1 50 2 10 5 l-43 4 0 75 c0 43 -4 74 -10
74 -6 0 -10 -33 -10 -80z"/>
<path d="M8451 2248 c12 -29 26 -66 31 -81 6 -15 15 -26 21 -24 10 3 67 130
67 149 0 23 -19 -7 -40 -62 -13 -34 -26 -58 -30 -53 -4 4 -17 34 -30 66 -12
31 -26 57 -31 57 -5 0 1 -24 12 -52z"/>
<path d="M8630 2220 l0 -80 58 2 c56 2 56 2 10 5 -47 4 -48 5 -48 38 0 33 2
34 43 38 l42 4 -42 1 c-40 2 -43 4 -43 31 0 28 2 30 48 34 46 3 46 3 -10 5
l-58 2 0 -80z"/>
<path d="M8808 2220 c-2 -44 0 -80 5 -80 4 0 7 18 7 40 0 28 4 40 14 40 8 0
25 -18 37 -40 13 -22 26 -40 31 -40 13 0 10 10 -13 42 l-21 29 21 15 c43 31
20 74 -40 74 l-37 0 -4 -80z m70 61 c25 -16 9 -46 -26 -49 -30 -3 -32 -1 -32
27 0 26 4 31 23 31 12 0 28 -4 35 -9z"/>
<path d="M9070 2220 c0 -47 4 -80 10 -80 6 0 10 18 10 41 0 40 0 41 34 38 19
-2 38 0 42 4 4 4 -11 7 -34 7 -40 0 -42 2 -42 29 0 28 3 30 43 34 40 3 40 4
-10 5 l-53 2 0 -80z"/>
<path d="M9242 2234 c-2 -54 2 -75 14 -84 19 -17 71 -17 87 -1 15 15 23 151 8
151 -7 0 -11 -23 -11 -63 0 -64 -11 -87 -39 -87 -35 0 -46 19 -52 87 l-6 68
-1 -71z"/>
<path d="M9443 2293 c27 -4 27 -5 27 -79 0 -43 4 -74 10 -74 6 0 10 31 10 74
0 74 0 75 28 79 15 2 -2 4 -38 4 -36 0 -53 -2 -37 -4z"/>
<path d="M9600 2237 c0 -71 18 -99 65 -99 45 0 55 18 53 96 l-1 71 -6 -68 c-6
-68 -17 -87 -51 -87 -29 0 -40 23 -40 87 0 35 -4 63 -10 63 -6 0 -10 -28 -10
-63z"/>
<path d="M9800 2220 c0 -47 4 -80 10 -80 6 0 10 18 10 40 0 22 4 40 10 40 5 0
21 -18 35 -40 31 -50 52 -53 23 -4 -20 33 -20 37 -5 46 22 12 22 64 1 72 -9 3
-31 6 -50 6 l-34 0 0 -80z m75 56 c16 -12 17 -16 6 -30 -7 -9 -24 -16 -37 -16
-20 0 -24 5 -24 30 0 34 22 40 55 16z"/>
<path d="M9992 2277 c-30 -32 -29 -87 1 -114 66 -62 166 1 136 86 -13 37 -35
51 -82 51 -22 0 -41 -8 -55 -23z m107 -13 c12 -15 21 -34 21 -44 0 -31 -39
-70 -70 -70 -31 0 -70 39 -70 70 0 31 39 70 70 70 19 0 36 -9 49 -26z"/>
<path d="M10210 2285 c-19 -23 -7 -49 33 -69 29 -14 37 -23 35 -40 -4 -25 -42
-34 -65 -14 -14 11 -15 11 -11 -2 6 -19 65 -25 84 -9 25 21 12 52 -29 73 -29
14 -37 23 -35 40 2 17 9 21 35 20 18 -1 30 2 27 7 -8 14 -60 10 -74 -6z"/>
<path d="M6797 2138 c-6 -21 -2 -36 7 -27 10 11 16 49 8 49 -5 0 -12 -10 -15
-22z"/>
<path d="M10360 2150 c0 -5 5 -10 10 -10 6 0 10 5 10 10 0 6 -4 10 -10 10 -5
0 -10 -4 -10 -10z"/>
</g>
</svg>
